<svg xmlns="http://www.w3.org/2000/svg" fill="none" viewBox="0 0 280 280"><path fill="#000" d="M52.5 52.5h198.333v198.333H52.5V52.5Z"/><path fill="#000" fill-rule="evenodd" d="M46.667 52.5a5.833 5.833 0 0 1 5.833-5.834h198.333a5.834 5.834 0 0 1 5.834 5.833v198.334a5.834 5.834 0 0 1-5.834 5.833H52.5a5.833 5.833 0 0 1-5.833-5.833V52.499Zm11.666 5.833v186.666H245V58.333H58.333Z" clip-rule="evenodd"/><path fill="white" d="M29.167 29.166H227.5v198.333H29.167V29.166Z"/><path fill="#000" fill-rule="evenodd" d="M23.333 29.166a5.833 5.833 0 0 1 5.834-5.833H227.5a5.833 5.833 0 0 1 5.833 5.833V227.5a5.833 5.833 0 0 1-5.833 5.833H29.167a5.834 5.834 0 0 1-5.834-5.833V29.166ZM35 35v186.666h186.667V35H35Z" clip-rule="evenodd"/><path fill="#000" d="M128.333 198.333c-38.66 0-70-31.34-70-70s31.34-70 70-70 70 31.34 70 70-31.34 70-70 70Z"/><path fill="#FFF500" fill-rule="evenodd" d="M93.333 116.666V93.333H105v23.333H93.333zm58.334 0V93.333h11.666v23.333h-11.666zm26.875 22.136c-44.419 33.938-85.659 14.144-100.904-.417l8.058-8.437c12.408 11.851 47.218 29.034 85.762-.417l7.084 9.271z" clip-rule="evenodd"/></svg>