<svg xmlns="http://www.w3.org/2000/svg" fill="none" viewBox="0 0 96 96"><path fill="#000" d="M18 18h68v68H18V18Z"/><path fill="#000" fill-rule="evenodd" d="M16 18a2 2 0 0 1 2-2h68a2 2 0 0 1 2 2v68a2 2 0 0 1-2 2H18a2 2 0 0 1-2-2V18Zm4 2v64h64V20H20Z" clip-rule="evenodd"/><path fill="white" d="M10 10h68v68H10V10Z"/><path fill="#000" fill-rule="evenodd" d="M8 10a2 2 0 0 1 2-2h68a2 2 0 0 1 2 2v68a2 2 0 0 1-2 2H10a2 2 0 0 1-2-2V10Zm4 2v64h64V12H12Z" clip-rule="evenodd"/><path fill="#000" d="m32 68 12-4 12 4V47c-7 6-17 6-24 0v21Z"/><path fill="#000" fill-rule="evenodd" d="M44 56c9.941 0 18-8.059 18-18s-8.059-18-18-18-18 8.059-18 18 8.059 18 18 18Zm0-10a8 8 0 1 0 0-16 8 8 0 0 0 0 16Z" clip-rule="evenodd"/><path fill="#000" d="M48 38a4 4 0 1 1-8 0 4 4 0 0 1 8 0Z"/></svg>