<svg xmlns="http://www.w3.org/2000/svg" fill="none" viewBox="0 0 96 96"><path fill="#000" d="M18 18h68v68H18V18Z"/><path fill="#000" fill-rule="evenodd" d="M16 18a2 2 0 0 1 2-2h68a2 2 0 0 1 2 2v68a2 2 0 0 1-2 2H18a2 2 0 0 1-2-2V18Zm4 2v64h64V20H20Z" clip-rule="evenodd"/><path fill="white" d="M10 10h68v68H10V10Z"/><path fill="#000" fill-rule="evenodd" d="M8 10a2 2 0 0 1 2-2h68a2 2 0 0 1 2 2v68a2 2 0 0 1-2 2H10a2 2 0 0 1-2-2V10Zm4 2v64h64V12H12Z" clip-rule="evenodd"/><path fill="#000" fill-rule="evenodd" d="m22.358 34.648 20 9 3.283-7.296-20-9-3.283 7.296Z" clip-rule="evenodd"/><path fill="#000" fill-rule="evenodd" d="m48 42.587 17.641-7.94-3.283-7.294L40 37.413V64h8V42.587Z" clip-rule="evenodd"/><path fill="#000" fill-rule="evenodd" d="m44 19.691 24 9.6v29.417l-24 9.6-24-9.6V29.29l24-9.6ZM28 34.708V53.29l16 6.4 16-6.4V34.708l-16-6.4-16 6.4Z" clip-rule="evenodd"/></svg>