<svg xmlns="http://www.w3.org/2000/svg" fill="none" viewBox="0 0 280 280"><path fill="#000" d="M52.5 52.5H250.833V250.833H52.5V52.5Z"/><path fill="#000" fill-rule="evenodd" d="M46.6667 52.4993C46.6667 49.2777 49.2783 46.666 52.5 46.666H250.833C254.055 46.666 256.667 49.2777 256.667 52.4993V250.833C256.667 254.054 254.055 256.666 250.833 256.666H52.5C49.2783 256.666 46.6667 254.054 46.6667 250.833V52.4993ZM58.3333 58.3327V244.999H245V58.3327H58.3333Z" clip-rule="evenodd"/><path fill="white" d="M29.1667 29.166H227.5V227.499H29.1667V29.166Z"/><path fill="#000" fill-rule="evenodd" d="M23.3333 29.1663C23.3333 25.9447 25.945 23.333 29.1667 23.333H227.5C230.722 23.333 233.333 25.9447 233.333 29.1663V227.5C233.333 230.721 230.722 233.333 227.5 233.333H29.1667C25.945 233.333 23.3333 230.721 23.3333 227.5V29.1663ZM35 34.9997V221.666H221.667V34.9997H35Z" clip-rule="evenodd"/><path fill="#000" d="M186.667 186.667H93.3333C93.3333 163.334 116.518 148.75 140 148.75C163.482 148.75 186.667 163.334 186.667 186.667Z"/><path fill="#000" fill-rule="evenodd" d="M108.452 175H171.548C169.932 172.52 167.775 170.273 165.129 168.284C158.623 163.394 149.48 160.416 140 160.416C130.52 160.416 121.377 163.394 114.871 168.284C112.225 170.273 110.068 172.52 108.452 175ZM100.851 149.632C111.808 141.397 125.998 137.083 140 137.083C154.002 137.083 168.192 141.397 179.149 149.632C190.278 157.997 198.333 170.712 198.333 186.667V198.333H81.6667V186.667C81.6667 170.712 89.7216 157.997 100.851 149.632Z" clip-rule="evenodd"/><path fill="#000" d="M175 105C175 130.773 154.107 151.666 128.333 151.666C102.56 151.666 81.6667 130.773 81.6667 105C81.6667 79.2264 102.56 58.333 128.333 58.333C154.107 58.333 175 79.2264 175 105Z"/><path fill="#39DBFF" fill-rule="evenodd" d="M93.3333 116.666V93.333H105V116.666H93.3333zM131.25 116.666V93.333H142.917V116.666H131.25z" clip-rule="evenodd"/></svg>