<svg xmlns="http://www.w3.org/2000/svg" fill="none" viewBox="0 0 280 280"><path fill="#000" d="M52.5 52.5h198.333v198.333H52.5V52.5Z"/><path fill="#000" fill-rule="evenodd" d="M46.667 52.5a5.833 5.833 0 0 1 5.833-5.834h198.333a5.834 5.834 0 0 1 5.834 5.833v198.334a5.834 5.834 0 0 1-5.834 5.833H52.5a5.833 5.833 0 0 1-5.833-5.833V52.499Zm11.666 5.833v186.666H245V58.333H58.333Z" clip-rule="evenodd"/><path fill="white" d="M29.167 29.166H227.5v198.333H29.167V29.166Z"/><path fill="#000" fill-rule="evenodd" d="M23.333 29.166a5.833 5.833 0 0 1 5.834-5.833H227.5a5.833 5.833 0 0 1 5.833 5.833V227.5a5.833 5.833 0 0 1-5.833 5.833H29.167a5.834 5.834 0 0 1-5.834-5.833V29.166ZM35 35v186.666h186.667V35H35Z" clip-rule="evenodd"/><path fill="#000" d="M198.333 198.333v-140h-140v140h140Z"/><path fill="white" fill-rule="evenodd" d="m137.083 132.251 61.751-61.75 16.499 16.498-78.25 78.25-54.916-54.916 16.5-16.5 38.416 38.418Z" clip-rule="evenodd"/></svg>