<svg xmlns="http://www.w3.org/2000/svg" fill="none" viewBox="0 0 96 96"><path fill="#000" d="M18 18h68v68H18V18Z"/><path fill="#000" fill-rule="evenodd" d="M16 18a2 2 0 0 1 2-2h68a2 2 0 0 1 2 2v68a2 2 0 0 1-2 2H18a2 2 0 0 1-2-2V18Zm4 2v64h64V20H20Z" clip-rule="evenodd"/><path fill="white" d="M10 10h68v68H10V10Z"/><path fill="#000" fill-rule="evenodd" d="M8 10a2 2 0 0 1 2-2h68a2 2 0 0 1 2 2v68a2 2 0 0 1-2 2H10a2 2 0 0 1-2-2V10Zm4 2v64h64V12H12Z" clip-rule="evenodd"/><path fill="#000" fill-rule="evenodd" d="M56 43.21V62h8V40.788l-9.86-14.789H33.86L24 40.788v21.211h8V43.21L38.14 34h11.72L56 43.21Z" clip-rule="evenodd"/><path fill="#000" d="M24 41.999h40v6H24v-6zm0 10h40v6H24v-6z"/><path fill="#000" d="M36 41.999h16v16H36v-16zm-16-4h8v8h-8v-8zm40 0h8v8h-8v-8z"/></svg>