<svg xmlns="http://www.w3.org/2000/svg" fill="none" viewBox="0 0 96 96"><path fill="#000" d="M18 18h68v68H18V18Z"/><path fill="#000" fill-rule="evenodd" d="M16 18a2 2 0 0 1 2-2h68a2 2 0 0 1 2 2v68a2 2 0 0 1-2 2H18a2 2 0 0 1-2-2V18Zm4 2v64h64V20H20Z" clip-rule="evenodd"/><path fill="white" d="M10 10h68v68H10V10Z"/><path fill="#000" fill-rule="evenodd" d="M8 10a2 2 0 0 1 2-2h68a2 2 0 0 1 2 2v68a2 2 0 0 1-2 2H10a2 2 0 0 1-2-2V10Zm4 2v64h64V12H12Z" clip-rule="evenodd"/><path fill="#000" d="M31 64V48h-8v16h8Z"/><path fill="#000" fill-rule="evenodd" d="M21 46h12v20H21V46Zm4 4v12h4V50h-4Z" clip-rule="evenodd"/><path fill="#000" d="M47 64V40h-8v24h8Z"/><path fill="#000" fill-rule="evenodd" d="M37 38h12v28H37V38Zm4 4v20h4V42h-4Z" clip-rule="evenodd"/><path fill="#000" d="M64 64V24h-9v40h9Z"/><path fill="#000" fill-rule="evenodd" d="M53 22h13v44H53V22Zm4 4v36h5V26h-5Z" clip-rule="evenodd"/></svg>