<svg viewBox="0 0 82 84" fill="none" xmlns="http://www.w3.org/2000/svg">
    <path d="M41.582 1.216c-1.796 4.609-1.197 8.882-1.023 13.747.226 6.318.418 12.596.877 18.903m-.371 11.314c-1.314 6.33-.723 12.5-.176 18.9.52 6.077 1.25 12.132 1.968 18.188M1.134 46.665c4.033-1.795 7.835-1.868 12.175-2.162a155.156 155.156 0 0 0 19.347-2.551m14.607-1.856c11.15-.714 22.127-2.565 33.184-4.1M49.343 34.65l3.574-6.483M32.979 50.35l-4.34 4.29m23.997-5.974 4.315 2.91M31.549 30.847c-4.675-1.415-8.835-3.493-13.275-5.488" stroke="currentColor" stroke-width="1.906" stroke-linecap="round"/>
</svg>
