<svg viewBox="0 0 45 95" fill="none" xmlns="http://www.w3.org/2000/svg">
    <path d="M22.625 2.703c-.083 8.111.1 15.948-1.832 23.838-.993 4.059-1.759 8.066-3.707 11.806-2.779 5.333-7.393 11.786-13.464 13.686-.887.278-2.899.465-.877-.061 2.194-.57 4.655-.984 6.922-1.086 3.288-.147 6.207 2.082 8.311 4.38 3.762 4.108 5.553 9.437 6.874 14.774 1.321 5.34 1.672 10.744 2.485 16.163.293 1.955.56 3.916.76 5.883.016.154.216 2.356-.046 1.899-1.463-2.55-1.575-6.492-1.87-9.317-.47-4.52-.24-9.048.24-13.56.336-3.146.634-6.575 1.873-9.536 1.477-3.53 4.716-5.782 7.765-8.156 0 0 8.659-3.537 7.223-5.136-3.312-3.686-13.786-6.56-15.821-11.16-2.323-5.251-2.835-11.59-3.02-17.259-.197-6.013-.618-12.05-.196-18.05" stroke="currentColor" stroke-width="1.206" stroke-linecap="round"/>
</svg>
