<svg class="w-10 h-10" viewBox="0 0 113 114" fill="none" xmlns="http://www.w3.org/2000/svg">
    <path d="M34.11 22.586c2.3 2 5.4-1.6 3.1-3.6-2.4-2-5.5 1.6-3.1 3.6Z" fill="currentColor"/>
    <path d="M34.11 22.586c2.3 2 5.4-1.6 3.1-3.6-2.4-2-5.5 1.6-3.1 3.6Z" fill="currentColor" fill-opacity=".2"/>
    <path d="M.81 33.786c2.3 2 5.4-1.6 3.1-3.6-2.3-2-5.4 1.6-3.1 3.6Z" fill="currentColor"/>
    <path d="M.81 33.786c2.3 2 5.4-1.6 3.1-3.6-2.3-2-5.4 1.6-3.1 3.6Z" fill="currentColor" fill-opacity=".2"/>
    <path d="M28.21 44.886c2.3 2 5.4-1.6 3.1-3.6-2.3-2.1-5.4 1.6-3.1 3.6Z" fill="currentColor"/>
    <path d="M28.21 44.886c2.3 2 5.4-1.6 3.1-3.6-2.3-2.1-5.4 1.6-3.1 3.6Z" fill="currentColor" fill-opacity=".2"/>
    <path d="M56.51 25.086c2.3 2 5.4-1.6 3.1-3.6-2.3-2-5.4 1.6-3.1 3.6Z" fill="currentColor"/>
    <path d="M56.51 25.086c2.3 2 5.4-1.6 3.1-3.6-2.3-2-5.4 1.6-3.1 3.6Z" fill="currentColor" fill-opacity=".2"/>
    <path d="M9.41 4.186c2.3 2 5.4-1.6 3.1-3.6-2.4-2-5.5 1.6-3.1 3.6Z" fill="currentColor"/>
    <path d="M9.41 4.186c2.3 2 5.4-1.6 3.1-3.6-2.4-2-5.5 1.6-3.1 3.6Z" fill="currentColor" fill-opacity=".2"/>
    <path d="M57.61 61.986c2.3 2 5.4-1.6 3.1-3.6-2.4-2.1-5.5 1.6-3.1 3.6Z" fill="currentColor"/>
    <path d="M57.61 61.986c2.3 2 5.4-1.6 3.1-3.6-2.4-2.1-5.5 1.6-3.1 3.6Z" fill="currentColor" fill-opacity=".2"/>
    <path d="M25.11 82.486c2.3 2 5.4-1.6 3.1-3.6-2.4-2-5.5 1.6-3.1 3.6Z" fill="currentColor"/>
    <path d="M25.11 82.486c2.3 2 5.4-1.6 3.1-3.6-2.4-2-5.5 1.6-3.1 3.6Z" fill="currentColor" fill-opacity=".2"/>
    <path d="M55.31 99.586c2.3 2 5.4-1.6 3.1-3.6-2.3-2.1-5.4 1.6-3.1 3.6Z" fill="currentColor"/>
    <path d="M55.31 99.586c2.3 2 5.4-1.6 3.1-3.6-2.3-2.1-5.4 1.6-3.1 3.6Z" fill="currentColor" fill-opacity=".2"/>
    <path d="M86.81 90.386c2.3 2 5.4-1.6 3.1-3.6-2.3-2-5.4 1.6-3.1 3.6Z" fill="currentColor"/>
    <path d="M86.81 90.386c2.3 2 5.4-1.6 3.1-3.6-2.3-2-5.4 1.6-3.1 3.6Z" fill="currentColor" fill-opacity=".2"/>
    <path d="M108.309 80.686c2.3 2 5.4-1.6 3.1-3.6-2.3-2.1-5.4 1.6-3.1 3.6Z" fill="currentColor"/>
    <path d="M108.309 80.686c2.3 2 5.4-1.6 3.1-3.6-2.3-2.1-5.4 1.6-3.1 3.6Z" fill="currentColor" fill-opacity=".2"/>
    <path d="M54.11 83.586c2.3 2 5.4-1.6 3.1-3.6-2.4-2.1-5.5 1.6-3.1 3.6Z" fill="currentColor"/>
    <path d="M54.11 83.586c2.3 2 5.4-1.6 3.1-3.6-2.4-2.1-5.5 1.6-3.1 3.6Z" fill="currentColor" fill-opacity=".2"/>
    <path d="M82.01 112.586c2.3 2 5.4-1.6 3.1-3.6-2.4-2-5.5 1.6-3.1 3.6Z" fill="currentColor"/>
    <path d="M82.01 112.586c2.3 2 5.4-1.6 3.1-3.6-2.4-2-5.5 1.6-3.1 3.6Z" fill="currentColor" fill-opacity=".2"/>
    <path d="M39.71 64.286c2.3 2 5.4-1.6 3.1-3.6-2.3-2-5.4 1.6-3.1 3.6Z" fill="currentColor"/>
    <path d="M39.71 64.286c2.3 2 5.4-1.6 3.1-3.6-2.3-2-5.4 1.6-3.1 3.6Z" fill="currentColor" fill-opacity=".2"/>
    <path d="M84.21 57.486c2.3 2 5.4-1.6 3.1-3.6-2.3-2.1-5.4 1.6-3.1 3.6Z" fill="currentColor"/>
    <path d="M84.21 57.486c2.3 2 5.4-1.6 3.1-3.6-2.3-2.1-5.4 1.6-3.1 3.6Z" fill="currentColor" fill-opacity=".2"/>
    <path d="M36.71 102.886c2.3 2 5.4-1.6 3.1-3.6-2.4-2-5.5 1.6-3.1 3.6Z" fill="currentColor"/>
    <path d="M36.71 102.886c2.3 2 5.4-1.6 3.1-3.6-2.4-2-5.5 1.6-3.1 3.6Z" fill="currentColor" fill-opacity=".2"/>
    <path d="M76.21 28.686c2.3 2 5.4-1.6 3.1-3.6-2.3-2-5.4 1.6-3.1 3.6Z" fill="currentColor"/>
    <path d="M76.21 28.686c2.3 2 5.4-1.6 3.1-3.6-2.3-2-5.4 1.6-3.1 3.6Z" fill="currentColor" fill-opacity=".2"/>
    <path d="M70.21 5.986c2.3 2 5.4-1.6 3.1-3.6-2.4-2-5.5 1.6-3.1 3.6Z" fill="currentColor"/>
    <path d="M70.21 5.986c2.3 2 5.4-1.6 3.1-3.6-2.4-2-5.5 1.6-3.1 3.6Z" fill="currentColor" fill-opacity=".2"/>
    <path d="M100.309 39.586c2.3 2 5.4-1.6 3.1-3.6-2.3-2-5.4 1.6-3.1 3.6Z" fill="currentColor"/>
    <path d="M100.309 39.586c2.3 2 5.4-1.6 3.1-3.6-2.3-2-5.4 1.6-3.1 3.6Z" fill="currentColor" fill-opacity=".2"/>
    <path d="M70.51 81.786c2.3 2 5.4-1.6 3.1-3.6-2.3-2.1-5.4 1.6-3.1 3.6Z" fill="currentColor"/>
    <path d="M70.51 81.786c2.3 2 5.4-1.6 3.1-3.6-2.3-2.1-5.4 1.6-3.1 3.6Z" fill="currentColor" fill-opacity=".2"/>
    <path d="M46.51 41.986c2.3 2 5.4-1.6 3.1-3.6-2.3-2-5.5 1.6-3.1 3.6Z" fill="currentColor"/>
    <path d="M46.51 41.986c2.3 2 5.4-1.6 3.1-3.6-2.3-2-5.5 1.6-3.1 3.6Z" fill="currentColor" fill-opacity=".2"/>
    <path d="M66.21 45.586c2.3 2 5.4-1.6 3.1-3.6-2.3-2-5.4 1.6-3.1 3.6Z" fill="currentColor"/>
    <path d="M66.21 45.586c2.3 2 5.4-1.6 3.1-3.6-2.3-2-5.4 1.6-3.1 3.6Z" fill="currentColor" fill-opacity=".2"/>
</svg>
