<svg viewBox="0 0 82 116" fill="none" xmlns="http://www.w3.org/2000/svg">
    <path d="M40.914 28.48c-2.302 1.055-7.831 2.843-6.166 6.45.421.913 1.395 1.495 2.393 1.084 1.264-.52 2.89-5.657 1.19-5.265-1.467.338-3.26 5.727-1.73 3.177.954-1.59 2.194-7.603.216-3.152M42.946 36.903c1.433-.536 6.737-1.644 7.414-3.543.2-.564-.466-.894-.874-.608-1.477 1.032-2.255 3.417-2.218 5.152.036 1.7 8.66-5.733 1.905-4.737M41.798 47.652c-.108.154-6.464 8.64-2.143 6.69 1.344-.607 1.95-1.601 2.012-2.987M20.856 49.848c-.4.744-4.046 5.836-3.037 6.944.647.712 1.185-.121 1.347-.723.192-.713.56-9.384-1.919-6.735-2.2 2.352-1.159 9.465 1.69 4.45 1.806-3.18 2.675-9.668-2.473-6.361M23.805 70.134c-.458-.577-4.258-6.743-5.422-4.706-.812 1.42-.994 3.16-1.112 4.759-.11 1.483 1.058 6.714 2.678 3.199.417-.905 1.888-7.699.131-7.91-1.948-.232-1.272 5.741-.437 6.723M36.718 70.92c.006-.036 1.157-8.683.099-5.429-.502 1.544.004 3.116.36 4.61M58.48 49.979c3.026.154 7.714 1.227 8.118-2.877.156-1.586-.26-1.85-1.628-1.58M40.848 81.178c.604 1.32 2.5 7.527 3.973 3.784.729-1.852 1.092-3.755 1.034-5.74-.08-2.74-.285.954-.025 2.055" stroke="currentColor" stroke-width="2.024" stroke-linecap="round"/>
    <path d="M69.165 42.703c-1.07.73-7.348 3.537-5.408 5.83 1.174 1.388 3.427 0 4.432-.788 5.616-4.398-.766-5.896-4.253-.89-2.416 3.467-.575 5.63 1.449 1.724 1.563-3.018.038-5.394-.841-1.615M64.61 63.645c-1.324 1.511-5.91 5.186-5.077 7.8.469 1.47 2.404-1.13 2.582-1.471.433-.834 3.372-11.771-.317-9.42-.854.544-3.31 4.84-2.012 5.751 1.823 1.28 3.499-2.775 3.48-4.07M41.176 85.472c3.131-18.304-4.01-.68-1.854-.153 2.434.595 3.834-8.771 1.362-4.239M3.453 96.745c1.428-3.83 3.836-12.283-.656-5.276M33.998 109.527c-.165.189-4.208 5.264-4.007 5.252 1.175-.068 1.946-2.746 2.245-3.581.22-.616 1.909-6.554.659-5.021-1.33 1.629-1.846 5.395-1.253 7.397 1.03 3.474 3.695-2.502 3.86-3.439.711-4.033-2.172-2.499-3.288-.037-1.04 2.295-1.088 6.388 1.708 2.662.525-.7 3.479-8.14.836-6.813-1.6.803-3.805 6.926-.53 4.399M47.763 102.12c.092-.067 8.704-5.873 5.277-6.409-2.772-.433-6.325 3.2-8.357 4.672M21.118 97.073c.01-.036 2.17-9.129 2.152-9.125-.72.15-1.227 2.977-1.35 3.496-.094.391-1.115 5.667.316 4.704 1.82-1.225 5.47-10.193.586-4.09M5.485 78.327c-.13-1.194.152-11.937-2.13-6.886-.332.734-2.614 6.94-.514 5.996 3.462-1.556 4.952-11.14.579-3.468M70.345 78.163c.092-.11 5.444-7.074 2.374-4.577-1.553 1.263-2.422 3.335-3.124 5.149-.899 2.323-.431 3.06.39.28M52.81 2c-.503.455-9.106 8.591-4.672 9.169 1.912.249 2.961-2.116 3.748-3.481 3.068-5.322-2.576-1.74-2.954 1.791-.099.928 1.04 1.58 1.614.705.8-1.223 2.02-3.845 1.697-5.37-.126-.587-.862.673-.632 1.213.634 1.495 2.364-.91 2.642-1.438M25.772 24.58c-.221.193-5.964 4.684-5.016 5.344.725.505 2.139-1.759 2.38-2.11.447-.653 2.262-4.704 1.98-3.988M62.348 19.566c-.462.567-5.493 5.335-3.587 6.209.9.412 1.67-.447 2.2-1.07.502-.592 2.174-4.411.571-4.509-3.069-.187-1.872 7.88.27 3.285 2.026-4.349-2.514-4.14-1.555-.507.45 1.706 1.114-1.608 1.067-2.137-.28-3.114-2.169-.988-2.407.86M79.915 34.28c-1.855 1.411-6.632 6.166-4.43 5.407 1.49-.514 2.726-4.311 3.039-5.663.88-3.794-3.939 2.343-1.655 4.128 3.053 2.386 4.651-9.471.876-3.725-.58.882-2.877 6.097-.834 6.197 2.596.128 3.123-4.677 3.168-6.343M21.052 47.128c-.093.11-5.547 7.098-4.377 6.911.993-.159 1.398-2.607 1.606-3.35.341-1.219.916-7.147-.577-3.204-.62 1.635.234 5.586.874 2.616.204-.947.608-3.33-.58-3.876-1.485-.682-1.314 3.788-1.337 4.442" stroke="currentColor" stroke-width="2.024" stroke-linecap="round"/>
</svg>
