<svg class="w-10 h-10" viewBox="0 0 106 67" fill="none" xmlns="http://www.w3.org/2000/svg">
    <path d="M.747 34.518c11.455 5.619 18.854 6.977 28.935-1.478 6.39-5.358 12.468-13.344 15.404-21.189 1.702-4.547-4.396.18-5.451 1.192-12.209 11.701-17.031 30.76-8.16 45.808 5.783 9.808 16.041 8.48 24.896 3.665 13.504-7.341 21.155-22.646 23.851-37.265.897-4.862 4.46-19.428-1.384-22.593-4.843-2.623-6.74 6.955-7.174 9.885-.618 4.177-1.633 13.246 1.5 16.618 4.494 4.835 13.448-1.584 16.68-4.838 6.14-6.18 10.616-14.995 15.099-22.412.33-.546-3.179 1.419-3.796 1.757-1.768.968-3.852 1.174-5.538 2.296-1.251.832-6.865 6.644-2.005 4.557 1.712-.736 9.719-9.45 10.097-9.216 1.545.958.998 12.635.88 14.793-.285 5.195-7.398-4.052-8.144-5.434" stroke="currentColor" stroke-width="2" stroke-linecap="round"/>
</svg>
