<svg viewBox="0 0 74 109" fill="none" xmlns="http://www.w3.org/2000/svg">
    <path d="M55.07 52.343c-4.327 1.201-8.39 2.884-9.484-2.546-.652-3.238.494-5.967 3.368-7.677 11.603-6.906 20.84 7.236 15.342 17.558-3.923 7.366-12.322 11.194-20.363 11.166-10.95-.039-13.767-12.358-12.114-21.562C33.62 39.25 41.665 29.593 52.77 30.993 66.778 32.76 75.37 49.054 71.358 61.915c-3.935 12.616-13.08 23.833-26.044 27.654-6.615 1.949-14.788 2.81-21.579 1.233-9.87-2.292-14.59-12.169-16.8-21.196-3.392-13.862 5.371-27.741 14.897-37.087 9.918-9.73 22.175-14.67 35.903-10.057 12.787 4.297 15.46 17.08 14.586 29.13-1.474 20.319-13.039 37.137-28.96 49.469-14.497 11.23-37.814 9.732-41.192-11.172-2.075-12.84.147-26.975 4.637-39.077 3.855-10.39 9.83-20.27 17.107-28.616C38.706 5.229 32.233 16.286 48.203 1" stroke="currentColor" stroke-width="1.15" stroke-linecap="round"/>
</svg>
